<?xml version="1.0" standalone="no"?>
<!DOCTYPE svg PUBLIC "-//W3C//DTD SVG 20010904//EN"
 "http://www.w3.org/TR/2001/REC-SVG-20010904/DTD/svg10.dtd">
<svg version="1.0" xmlns="http://www.w3.org/2000/svg"
 width="621.000000pt" height="643.000000pt" viewBox="0 0 621.000000 643.000000"
 preserveAspectRatio="xMidYMid meet">

<g transform="translate(0.000000,643.000000) scale(0.100000,-0.100000)"
fill="#000000" stroke="none">
<path d="M0 3215 l0 -3215 3105 0 3105 0 0 3215 0 3215 -3105 0 -3105 0 0
-3215z m2083 848 c3 -1594 4 -1609 25 -1719 62 -325 213 -546 463 -678 110
-58 204 -83 369 -96 386 -32 659 46 855 244 170 171 251 375 284 720 7 72 11
635 11 1623 l0 1513 583 0 582 0 -2 -497 c-2 -274 -4 -1022 -6 -1663 -3 -1057
-5 -1175 -21 -1270 -43 -260 -100 -446 -196 -645 -249 -517 -719 -886 -1298
-1019 -182 -42 -289 -56 -505 -66 -337 -14 -599 10 -877 81 -599 154 -1049
557 -1274 1141 -69 180 -102 305 -138 525 l-22 138 -3 1638 -4 1637 585 0 585
0 4 -1607z"/>
</g>
</svg>
